<?xml version="1.0" encoding="UTF-8"?>
<svg version="1.1" xmlns="http://www.w3.org/2000/svg" width="512" height="512">
<path d="M0 0 C0.96494385 0.00021149 1.9298877 0.00042297 2.92407227 0.00064087 C18.82223219 0.03530924 34.09838082 1.01983317 49.6875 4.375 C50.61369141 4.57287109 51.53988281 4.77074219 52.49414062 4.97460938 C89.32666367 13.08669036 128.86849428 29.94930815 155.19140625 57.84765625 C156.72857547 59.41693344 158.34846465 60.75299438 160.0625 62.125 C164.96868842 66.2519057 168.7222424 71.37204067 172.6875 76.375 C173.35910156 77.1690625 174.03070313 77.963125 174.72265625 78.78125 C197.34864928 105.7705061 209.15484844 140.87596192 209.0625 175.8125 C209.06228851 176.55456696 209.06207703 177.29663391 209.06185913 178.06118774 C209.01034952 196.25189099 206.41203111 213.38387193 199.6875 230.375 C199.41454102 231.06480957 199.14158203 231.75461914 198.86035156 232.46533203 C192.43461715 248.42316417 183.96227204 263.33405237 172.6875 276.375 C171.77303287 277.48166483 170.86040617 278.58985197 169.94921875 279.69921875 C155.09039366 297.63608325 137.03926081 312.09136553 116.6875 323.375 C115.68251465 323.93912598 115.68251465 323.93912598 114.65722656 324.51464844 C79.49358576 344.1450759 40.83905493 352.68795087 0.77099609 352.66552734 C-1.38909128 352.67152454 -3.54917653 352.67833278 -5.70925903 352.68588257 C-11.52672237 352.70341179 -17.34412674 352.7082319 -23.16161394 352.70951414 C-26.80006418 352.71094182 -30.4384997 352.71522265 -34.07694626 352.72050858 C-46.77933445 352.73895348 -59.48168088 352.74718466 -72.18408203 352.74560547 C-84.01545169 352.74440008 -95.84664012 352.76559431 -107.67796385 352.7970928 C-117.85579937 352.82322204 -128.03357545 352.83397443 -138.21144426 352.83269465 C-144.2823816 352.83218477 -150.35315699 352.83788499 -156.42406082 352.85905075 C-162.12221956 352.87838072 -167.82006065 352.87859351 -173.51823044 352.86401749 C-175.60882785 352.86192298 -177.69944493 352.86666832 -179.79000854 352.8787384 C-182.6425773 352.8941433 -185.49404363 352.88491474 -188.34658813 352.86947632 C-189.1742058 352.87976344 -190.00182346 352.89005057 -190.85452044 352.90064943 C-196.14250678 352.83735546 -199.09752276 351.84273983 -203.3125 348.375 C-207.46557107 343.8940549 -207.77563518 340.10326603 -207.84375 334.25390625 C-206.35083554 326.16362715 -200.23848106 320.90048118 -194.609375 315.37890625 C-193.77158508 314.54536118 -192.93379517 313.7118161 -192.07061768 312.85301208 C-189.4082377 310.20734765 -186.7355887 307.57233986 -184.0625 304.9375 C-182.24931072 303.13936666 -180.43680301 301.34054576 -178.625 299.54101562 C-174.19536118 295.14435159 -169.75725714 290.75637695 -165.3125 286.375 C-166.90670855 282.09830204 -168.83503219 279.36757323 -171.875 275.9375 C-188.63764499 256.42982718 -200.46557214 231.60402338 -205.3125 206.375 C-205.48982666 205.45565674 -205.66715332 204.53631348 -205.84985352 203.58911133 C-207.41300873 194.60879503 -207.67425441 185.77016382 -207.625 176.6875 C-207.62218018 175.9359967 -207.61936035 175.18449341 -207.61645508 174.41021729 C-207.46925986 148.28653766 -201.25896469 124.24406979 -188.3125 101.375 C-187.76891846 100.40312744 -187.76891846 100.40312744 -187.21435547 99.41162109 C-182.5525653 91.14671043 -177.49760308 83.59640783 -171.3125 76.375 C-170.39592394 75.26401921 -169.48064527 74.15196726 -168.56640625 73.0390625 C-153.70525585 55.10945521 -135.66107298 40.65686704 -115.3125 29.375 C-114.64250977 28.99891602 -113.97251953 28.62283203 -113.28222656 28.23535156 C-89.61307976 15.02183161 -64.11810486 6.56285048 -37.3125 2.375 C-36.18948486 2.19839844 -35.06646973 2.02179687 -33.90942383 1.83984375 C-22.60278506 0.23738435 -11.40859642 -0.02314937 0 0 Z " fill="#2196F3" transform="translate(207.3125,15.625)"/>
<path d="M0 0 C3.59978187 1.24915508 5.85421727 2.51858991 8.4375 5.3125 C10.56629842 7.54704866 12.59118111 9.48033465 15 11.4375 C18.76216352 14.65101467 21.83011136 18.21302238 25 22 C25.6909375 22.80308594 26.381875 23.60617188 27.09375 24.43359375 C51.65342162 53.53334552 65.21536314 88.21537186 65.25 126.375 C65.25100708 127.13977661 65.25201416 127.90455322 65.25305176 128.69250488 C65.24317613 139.75263233 64.83031403 150.24966558 62 161 C61.70996094 162.17175781 61.41992188 163.34351563 61.12109375 164.55078125 C54.50413323 189.44051976 42.77412363 213.99073264 24.23046875 232.23828125 C22.78226732 233.90084192 22.78226732 233.90084192 23.20095825 235.86965942 C24.19882137 238.53008148 25.52231692 239.86337537 27.55419922 241.84716797 C28.30522919 242.58828827 29.05625916 243.32940857 29.83004761 244.09298706 C30.64667877 244.88472321 31.46330994 245.67645935 32.3046875 246.4921875 C33.13960724 247.31574738 33.97452698 248.13930725 34.83474731 248.98782349 C38.40982679 252.51382809 42.00223475 256.02198838 45.59326172 259.53173828 C48.21154509 262.09572216 50.82076708 264.66868271 53.4296875 267.2421875 C54.2422702 268.02987518 55.05485291 268.81756287 55.89205933 269.62911987 C61.2492476 274.9162097 65.38928086 279.49930293 65.5625 287.375 C65.42788089 292.56846347 63.96506168 295.47930639 60.703125 299.44140625 C56.3552426 303.42031697 52.03539603 303.28670394 46.35966492 303.26069641 C45.47817726 303.26452196 44.59668961 303.26834751 43.68849021 303.27228898 C40.72805754 303.28262547 37.7678186 303.27862532 34.80737305 303.2746582 C32.68649109 303.27900487 30.56561071 303.28418786 28.44473267 303.29014587 C22.67293052 303.30356631 16.90119375 303.30411012 11.12937903 303.30158257 C6.29986286 303.30051282 1.4703599 303.30539745 -3.35915345 303.310188 C-14.77452053 303.32129818 -26.18985473 303.32171507 -37.60522461 303.31567383 C-49.33486638 303.3096607 -61.06438739 303.32187353 -72.79400855 303.3432439 C-82.88948968 303.36095283 -92.98493272 303.36684587 -103.08042878 303.36360615 C-109.09784004 303.36180455 -115.11516558 303.36431414 -121.13256264 303.37832069 C-126.81169771 303.39104257 -132.49064798 303.3888215 -138.16978073 303.37590981 C-140.23548512 303.37357363 -142.30120308 303.37616996 -144.36689186 303.38453293 C-162.95188003 303.45424205 -181.43190145 301.88548778 -199.5 297.3125 C-200.52641602 297.05758789 -201.55283203 296.80267578 -202.61035156 296.54003906 C-233.28769348 288.6709201 -264.26718894 275.43863933 -288 254 C-288.8559375 253.23945313 -289.711875 252.47890625 -290.59375 251.6953125 C-292.28879347 250.17896337 -293.97664735 248.65452845 -295.65625 247.12109375 C-297.79924312 245.18168497 -299.98344638 243.30670701 -302.1875 241.4375 C-311.64224536 233.15280297 -319.74665306 222.55923142 -326.15795898 211.77880859 C-326.95906349 210.43452286 -326.95906349 210.43452286 -327.77635193 209.06307983 C-328.38205772 208.04185532 -328.38205772 208.04185532 -329 207 C-327.92354721 206.98969254 -326.84709442 206.97938507 -325.73802185 206.96876526 C-315.48798895 206.87010649 -305.23800444 206.76730405 -294.98805141 206.66066074 C-289.72113705 206.60598967 -284.45421692 206.55267298 -279.18725586 206.50268555 C-274.08431773 206.45420107 -268.98143133 206.40185369 -263.87855721 206.34705925 C-261.95219307 206.32700846 -260.025815 206.30824497 -258.09942436 206.29092598 C-247.59280661 206.19553806 -237.1025112 205.97438508 -226.60449219 205.52563477 C-225.1816424 205.46515001 -225.1816424 205.46515001 -223.73004818 205.40344334 C-216.36768248 205.06635821 -209.11142396 204.42539263 -201.8125 203.375 C-200.61036865 203.20387695 -199.4082373 203.03275391 -198.16967773 202.85644531 C-163.70840176 197.63932556 -129.42791916 185.93586276 -100 167 C-99.12408203 166.43998291 -99.12408203 166.43998291 -98.23046875 165.86865234 C-90.12712858 160.66378288 -82.36356168 155.22304009 -75 149 C-74.45456543 148.54334961 -73.90913086 148.08669922 -73.34716797 147.61621094 C-62.46249301 138.49364688 -52.83978276 129.16759222 -44 118 C-43.2059375 117.02289063 -42.411875 116.04578125 -41.59375 115.0390625 C-14.98345231 81.60777078 -1.94766811 42.3361542 0 0 Z " fill="#64B5F6" transform="translate(447,193)"/>
<path d="M0 0 C0.81433479 -0.00367669 1.62866957 -0.00735338 2.46768117 -0.01114148 C5.20593847 -0.02218531 7.94415783 -0.02602334 10.68243408 -0.02983093 C12.64193849 -0.03609503 14.6014417 -0.04274178 16.5609436 -0.04974365 C21.89164034 -0.06715765 27.2223281 -0.07770641 32.55304623 -0.08594918 C35.88270918 -0.09109827 39.21236935 -0.09717403 42.54203033 -0.10346031 C52.95752126 -0.12251312 63.37300508 -0.13674433 73.78851008 -0.14507228 C85.81570087 -0.1548474 97.84270774 -0.18117381 109.86983371 -0.22157317 C119.16334654 -0.25172024 128.45680661 -0.2665398 137.7503674 -0.26985329 C143.30231713 -0.27220528 148.85407039 -0.28118522 154.40596771 -0.30631447 C159.62954258 -0.32957559 164.85279136 -0.33383622 170.07640457 -0.32355309 C171.99242105 -0.32305715 173.90845347 -0.3293946 175.82442093 -0.34310913 C178.44307119 -0.36080303 181.06054802 -0.3537345 183.67919922 -0.34057617 C184.43495263 -0.35154542 185.19070604 -0.36251466 185.96936107 -0.37381631 C191.41947131 -0.30783292 194.58160309 1.06986707 199.09356689 4.14717102 C203.17091105 8.54641077 204.46382646 11.96952052 204.37481689 18.02217102 C203.73227485 22.87693312 201.08254586 26.23055637 197.53106689 29.52217102 C193.1731654 32.42743868 189.23146095 32.29333135 184.18040466 32.28761292 C183.36536431 32.29058404 182.55032396 32.29355516 181.71058542 32.29661632 C178.96999016 32.30531207 176.22943854 32.3068123 173.48883057 32.30830383 C171.52770392 32.31293138 169.56657818 32.31795595 167.60545349 32.323349 C162.27068801 32.3364809 156.93593512 32.34291946 151.601156 32.34735966 C148.26949058 32.35028903 144.93782861 32.35439357 141.60616493 32.35886383 C131.18586848 32.37254066 120.76557991 32.38220649 110.3452751 32.38606572 C98.30961779 32.39054749 86.27407398 32.40810016 74.23845118 32.43706632 C64.93985771 32.45866978 55.6412962 32.46876928 46.34267789 32.47010684 C40.78688625 32.4711558 35.23120128 32.47708296 29.67543602 32.49492645 C24.44944103 32.51138407 19.22363317 32.51357384 13.99762154 32.50478745 C12.07957839 32.50401584 10.16152529 32.50837599 8.24350739 32.5182457 C5.62467464 32.53093127 3.00650804 32.52510693 0.38768005 32.5146637 C-0.75031932 32.5267483 -0.75031932 32.5267483 -1.91130859 32.53907704 C-7.34367554 32.48842664 -11.48825389 31.35282617 -15.55096436 27.64717102 C-19.50916676 22.56372713 -20.56329536 18.54549593 -19.90643311 12.14717102 C-18.04786483 6.88122758 -15.30329115 4.35321334 -10.90643311 1.14717102 C-7.22675575 -0.0793881 -3.83185426 -0.00092386 0 0 Z " fill="#F9F9F9" transform="translate(115.90643310546875,143.8528289794922)"/>
<path d="M0 0 C1.13833282 -0.0071553 2.27666565 -0.01431061 3.44949341 -0.02168274 C4.69941071 -0.02437164 5.949328 -0.02706055 7.23712158 -0.02983093 C8.55280121 -0.03640213 9.86848083 -0.04297333 11.22402954 -0.04974365 C15.58938378 -0.07076897 19.95473832 -0.08114499 24.32012939 -0.09111023 C25.82410958 -0.09515844 27.32808958 -0.09927538 28.8320694 -0.10346031 C35.89871277 -0.12250908 42.96534573 -0.13674044 50.03200984 -0.14507228 C58.18336536 -0.15484221 66.33444916 -0.18115645 74.48570895 -0.22157317 C80.78986296 -0.25175624 87.09393918 -0.26654325 93.39816403 -0.26985329 C97.16163013 -0.27220141 100.92480583 -0.28113031 104.68819427 -0.30631447 C108.23086558 -0.32963873 111.77305619 -0.33381133 115.31578445 -0.32355309 C117.22886528 -0.32282368 119.14192193 -0.34188461 121.05490112 -0.36161804 C127.772732 -0.32104141 132.10033319 0.05176689 137.52325439 4.14717102 C141.60059855 8.54641077 142.89351396 11.96952052 142.80450439 18.02217102 C142.16196235 22.87693312 139.51223336 26.23055637 135.96075439 29.52217102 C132.23531088 32.00580003 129.42019429 32.27548245 125.04650879 32.29434204 C123.90817596 32.30149734 122.76984314 32.30865265 121.59701538 32.31602478 C120.34709808 32.31871368 119.09718079 32.32140259 117.80938721 32.32417297 C116.49370758 32.33074417 115.17802795 32.33731537 113.82247925 32.34408569 C109.457125 32.36511101 105.09177047 32.37548703 100.72637939 32.38545227 C99.22239921 32.38950048 97.7184192 32.39361742 96.21443939 32.39780235 C89.14779601 32.41685112 82.08116306 32.43108248 75.01449895 32.43941432 C66.86314343 32.44918425 58.71205963 32.47549849 50.56079984 32.51591522 C44.25664583 32.54609829 37.95256961 32.56088529 31.64834476 32.56419533 C27.88487866 32.56654345 24.12170296 32.57547235 20.35831451 32.60065651 C16.81564321 32.62398078 13.2734526 32.62815337 9.73072433 32.61789513 C7.81764351 32.61716572 5.90458686 32.63622665 3.99160767 32.65596008 C-2.72622321 32.61538345 -7.0538244 32.24257515 -12.47674561 28.14717102 C-16.609713 23.68791673 -17.79978716 20.32274015 -17.68768311 14.20185852 C-17.20182618 9.46925218 -14.95931974 6.36676293 -11.47674561 3.33467102 C-7.46414771 0.40881839 -4.83539513 0.02085051 0 0 Z " fill="#F9F9F9" transform="translate(113.47674560546875,207.8528289794922)"/>
</svg>
